<svg version="1.1" preserveAspectRatio="xMidYMid meet" xmlns="http://www.w3.org/2000/svg" xmlns:xlink="http://www.w3.org/1999/xlink" viewBox="-272.947 0 1545.894 1000"><defs><path d="M794.476,500 A294.476,294.476 0 1 0 205.524,500 A294.476,294.476 0 1 0 794.476,500 Z" stroke-linecap="round" stroke-linejoin="round" stroke-miterlimit="25" id="def-8a6f80f3-080f-4d24-87d0-c2449f0afda6"></path><g id="def-e2db243f-3c0f-40b1-9724-c27cd708f79d"><use xlink:href="#def-8a6f80f3-080f-4d24-87d0-c2449f0afda6" fill="none" stroke="#000" stroke-width="10.625"></use></g><g transform="matrix(0.46, 0, 0, 0.46, 480.205, 448.63)" fill="#000" stroke="none" stroke-width="1" id="def-5513b48c-8ec7-4e8d-9f4d-720a0818256c"><g transform="translate(-4.952, -4.099)"><g></g><g><g><path fill="#000" d=" M76.163,89.548 l-22.98 -22.981 c-0.781 -0.781 -0.781 -2.047,0 -2.828 c0.781 -0.781,2.047 -0.781,2.828,0 l20.152,20.152 l8.485 -8.485 c2.339 -2.339,2.339 -6.146,0 -8.486 L69.092,51.364 c-0.781 -0.781 -0.781 -2.047,0 -2.828 c0.781 -0.781,2.047 -0.781,2.828,0 l15.557,15.556 c3.899,3.899,3.898,10.244,0,14.142 L76.163,89.548 z"></path></g><g><path fill="#000" d=" M30.722,43.278 c-0.512,0 -1.023 -0.195 -1.414 -0.586 L5.452,18.837 L16.767,7.523 c3.9 -3.899,10.245 -3.897,14.142,0 l16.264,16.264 c0.781,0.781,0.781,2.047,0,2.828 c-0.781,0.781 -2.047,0.781 -2.828,0 L28.08,10.352 c-2.342 -2.34 -6.147 -2.338 -8.485,0 l-8.486,8.485 l21.027,21.027 c0.781,0.781,0.781,2.047,0,2.828 C31.745,43.083,31.233,43.278,30.722,43.278 z"></path></g><g><path fill="#000" d=" M13.938,26.494 c-0.512,0 -1.023 -0.195 -1.414 -0.585 c-0.781 -0.781 -0.781 -2.047,0 -2.829 l3.535 -3.536 c0.781 -0.781,2.047 -0.781,2.828,0 c0.781,0.781,0.781,2.047,0,2.829 l-3.535,3.536 C14.961,26.299,14.449,26.494,13.938,26.494 z"></path></g><g><path fill="#000" d=" M21.009,33.565 c-0.512,0 -1.023 -0.195 -1.414 -0.586 c-0.781 -0.781 -0.781 -2.047,0 -2.828 l6.364 -6.364 c0.781 -0.781,2.047 -0.781,2.828,0 c0.781,0.781,0.781,2.047,0,2.828 l-6.364,6.364 C22.032,33.37,21.521,33.565,21.009,33.565 z"></path></g><g><path fill="#000" d=" M28.08,40.636 c-0.512,0 -1.023 -0.195 -1.414 -0.585 c-0.781 -0.781 -0.781 -2.047,0 -2.829 l3.535 -3.536 c0.781 -0.781,2.047 -0.781,2.828,0 c0.781,0.781,0.781,2.047,0,2.829 l-3.535,3.536 C29.104,40.441,28.592,40.636,28.08,40.636 z"></path></g><g><path fill="#000" d=" M56.364,68.92 c-0.512,0 -1.023 -0.195 -1.414 -0.585 c-0.781 -0.781 -0.781 -2.047,0 -2.829 l3.535 -3.536 c0.781 -0.781,2.047 -0.781,2.828,0 c0.781,0.781,0.781,2.047,0,2.829 l-3.535,3.536 C57.388,68.725,56.876,68.92,56.364,68.92 z"></path></g><g><path fill="#000" d=" M63.435,75.991 c-0.512,0 -1.023 -0.195 -1.414 -0.586 c-0.781 -0.781 -0.781 -2.047,0 -2.828 l6.364 -6.364 c0.781 -0.781,2.047 -0.781,2.828,0 c0.781,0.781,0.781,2.047,0,2.828 l-6.364,6.364 C64.458,75.796,63.946,75.991,63.435,75.991 z"></path></g><g><path fill="#000" d=" M70.506,83.062 c-0.512,0 -1.023 -0.195 -1.414 -0.586 c-0.781 -0.781 -0.781 -2.047,0 -2.829 l3.536 -3.536 c0.781 -0.78,2.047 -0.781,2.828,0 s0.781,2.047,0,2.828 l-3.536,3.536 C71.529,82.867,71.018,83.062,70.506,83.062 z"></path></g></g><g><g><path fill="#000" d=" M10.455,85.545 l1.671 -20.056 l56.38 -56.379 c1.889 -1.889,4.4 -2.929,7.071 -2.929 s5.183,1.04,7.071,2.929 l4.242,4.243 c1.889,1.889,2.929,4.4,2.929,7.071 s-1.04,5.182 -2.929,7.071 L30.512,83.873 L10.455,85.545 z M15.991,67.281 l-1.157,13.885 l13.885 -1.157 l55.344 -55.343 c2.339 -2.339,2.339 -6.146,0 -8.485 l-4.242 -4.243 c-1.134 -1.133 -2.641 -1.757 -4.243 -1.757 s-3.109,0.624 -4.243,1.758 L15.991,67.281 z"></path></g><g><path fill="#000" d=" M29.617,82.527 c-0.061,0 -0.121 -0.002 -0.183 -0.008 c-1.101 -0.1 -1.911 -1.073 -1.812 -2.173 l0.49 -5.388 l-7.778,0.708 l0.707 -7.778 l-5.389,0.49 c-1.095,0.11 -2.072 -0.71 -2.173 -1.811 c-0.1 -1.1,0.711 -2.073,1.812 -2.173 l10.168 -0.924 l-0.707,7.778 l7.778 -0.708 l-0.924,10.168 C31.513,81.746,30.641,82.527,29.617,82.527 z"></path></g><g><path fill="#000" d=" M18.302,83.941 c-0.512,0 -1.023 -0.195 -1.414 -0.586 l-4.95 -4.95 c-0.781 -0.781 -0.781 -2.047,0 -2.828 c0.781 -0.781,2.047 -0.781,2.828,0 l4.95,4.95 c0.781,0.781,0.781,2.047,0,2.828 C19.325,83.746,18.813,83.941,18.302,83.941 z"></path></g><g><path fill="#000" d=" M80.527,33.029 c-0.512,0 -1.023 -0.195 -1.414 -0.586 L63.557,16.887 c-0.781 -0.781 -0.781 -2.047,0 -2.828 c0.781 -0.781,2.047 -0.781,2.828,0 l15.557,15.556 c0.781,0.781,0.781,2.047,0,2.828 C81.551,32.834,81.039,33.029,80.527,33.029 z"></path></g><g><path fill="#000" d=" M75.577,37.979 c-0.512,0 -1.023 -0.195 -1.414 -0.586 L58.606,21.837 c-0.781 -0.781 -0.781 -2.047,0 -2.828 c0.781 -0.781,2.047 -0.781,2.828,0 l15.557,15.556 c0.781,0.781,0.781,2.047,0,2.828 C76.601,37.784,76.089,37.979,75.577,37.979 z"></path></g><g><path fill="#000" d=" M28.08,62.849 c-0.512,0 -1.023 -0.195 -1.414 -0.586 c-0.781 -0.781 -0.781 -2.047,0 -2.828 l31.301 -31.301 c0.781 -0.781,2.047 -0.781,2.828,0 c0.781,0.781,0.781,2.047,0,2.828 L29.494,62.263 C29.104,62.654,28.592,62.849,28.08,62.849 z"></path></g><g><path fill="#000" d=" M35.08,69.849 c-0.512,0 -1.023 -0.195 -1.414 -0.586 c-0.781 -0.781 -0.781 -2.047,0 -2.828 l31.301 -31.301 c0.781 -0.781,2.047 -0.781,2.828,0 c0.781,0.781,0.781,2.047,0,2.828 L36.494,69.263 C36.104,69.654,35.592,69.849,35.08,69.849 z"></path></g></g></g></g><path d="M337.681,517.895 C339.72,516.815,341.199,514.616,341.199,511.858 C341.199,507.74,338.321,505.021,333.083,505.021 L322.768,505.021 L322.768,506.02 L325.447,507.06 L325.447,530.969 L322.768,532.008 L322.768,533.008 L332.604,533.008 C339.2,533.008,342.799,530.489,342.799,524.412 C342.799,521.333,340.92,518.774,337.681,517.895 Z M331.844,506.62 C333.523,506.62,336.162,508.179,336.162,511.898 C336.162,514.297,335.722,515.816,335.602,516.296 C334.882,516.695,333.923,517.015,332.004,517.015 C331.524,517.015,331.004,516.935,330.564,516.815 L330.564,506.74 C330.924,506.66,331.364,506.62,331.844,506.62 Z M336.282,530.489 C336.282,530.489,335.562,531.169,334.163,531.169 C332.763,531.169,331.484,531.009,330.564,530.729 L330.564,519.254 C330.924,519.214,331.364,519.174,331.924,519.174 C335.042,519.174,337.521,521.133,337.521,524.852 C337.521,527.89,336.961,529.569,336.282,530.489 Z M358.625,530.969 L358.625,507.02 L361.224,506.02 L361.224,505.021 L350.909,505.021 L350.909,506.02 L353.508,507.02 L353.508,530.969 L350.829,532.008 L350.829,533.008 L361.304,533.008 L361.304,532.008 Z M381.689,523.052 L381.689,524.052 L384.288,525.051 L384.288,529.689 C383.768,530.049,383.048,530.289,382.329,530.289 C377.251,530.289,374.252,525.411,374.252,516.695 C374.252,512.617,375.372,509.619,375.852,508.459 C375.852,508.459,376.931,507.42,379.33,507.42 C381.249,507.42,383.168,507.86,384.128,509.019 L384.168,514.097 L386.646,514.097 L389.045,507.62 C387.206,505.301,385.047,504.381,381.489,504.381 C373.733,504.381,369.455,510.938,369.455,520.214 C369.455,529.569,374.572,533.487,380.21,533.487 C383.088,533.487,384.887,532.648,386.367,531.448 L387.486,533.168 L388.965,533.168 L388.965,525.051 L391.564,524.052 L391.564,523.052 Z M416.427,505.021 L398.995,505.021 L398.995,506.02 L401.674,507.06 L401.674,530.969 L398.995,532.008 L398.995,533.008 L410.31,533.008 L410.31,531.928 L406.791,530.969 L406.791,519.494 L411.069,519.494 L412.189,522.213 L413.348,522.213 L413.348,514.616 L412.189,514.616 L411.069,517.295 L406.791,517.295 L406.791,507.22 L413.628,507.22 L413.628,511.498 L415.027,511.498 L416.427,507.22 Z M441.369,531.009 L433.133,504.821 L430.254,504.821 L421.978,530.889 L419.1,532.048 L419.1,533.008 L427.696,533.008 L427.696,532.008 L424.737,530.889 L426.296,526.051 L434.332,526.051 L435.932,531.009 L433.213,532.008 L433.213,533.008 L443.968,533.008 L443.968,532.008 Z M427.016,523.852 L430.414,513.217 L430.494,514.017 L433.653,523.852 Z M450.079,520.214 C450.079,529.569,455.197,533.487,460.834,533.487 C464.912,533.487,467.551,531.648,469.63,528.85 L468.87,527.77 C467.231,529.289,465.072,530.289,462.953,530.289 C457.876,530.289,454.877,525.411,454.877,516.695 C454.877,512.617,455.996,509.619,456.476,508.459 C456.476,508.459,457.556,507.42,459.955,507.42 C461.874,507.42,463.793,507.86,464.752,509.019 L464.792,514.097 L467.271,514.097 L469.67,507.62 C467.831,505.301,465.672,504.381,462.114,504.381 C454.357,504.381,450.079,510.938,450.079,520.214 Z M494.253,511.498 L495.652,507.22 L495.652,505.021 L477.421,505.021 L477.421,506.02 L480.099,507.06 L480.099,530.969 L477.421,532.008 L477.421,533.008 L495.652,533.008 L495.652,526.531 L494.253,526.531 L492.853,530.809 L485.217,530.809 L485.217,519.494 L490.255,519.494 L491.374,522.213 L492.533,522.213 L492.533,514.616 L491.374,514.616 L490.255,517.295 L485.217,517.295 L485.217,507.22 L492.853,507.22 L492.853,511.498 Z M532.909,530.969 L532.309,507.02 L534.868,506.18 L534.868,505.021 L527.831,505.021 L520.155,527.21 L520.155,526.891 L511.839,505.021 L504.282,505.021 L504.282,506.02 L506.841,507.02 L506.201,530.969 L503.523,532.008 L503.523,533.008 L511.998,533.008 L511.998,532.008 L509.32,530.969 L509.8,512.737 L517.556,533.208 L520.834,533.208 L527.911,512.577 L528.111,530.969 L525.152,532.008 L525.152,533.008 L535.867,533.008 L535.867,532.008 Z M565.327,531.009 L557.091,504.821 L554.213,504.821 L545.937,530.889 L543.058,532.048 L543.058,533.008 L551.654,533.008 L551.654,532.008 L548.695,530.889 L550.255,526.051 L558.291,526.051 L559.89,531.009 L557.171,532.008 L557.171,533.008 L567.926,533.008 L567.926,532.008 Z M550.974,523.852 L554.373,513.217 L554.453,514.017 L557.611,523.852 Z M584.872,507.66 C586.552,507.66,588.271,508.499,588.751,509.059 L588.751,513.057 L590.99,513.057 L592.669,506.26 C591.189,505.141,588.871,504.381,585.672,504.381 C580.754,504.381,576.636,507.22,576.636,511.858 C576.636,516.935,578.795,518.934,584.393,521.373 C588.471,523.132,590.27,525.971,589.95,528.81 C589.47,529.609,588.111,530.129,586.032,530.129 C583.113,530.129,580.395,528.25,579.835,527.41 L579.835,522.932 L577.316,522.932 L575.277,529.249 C576.676,531.928,580.355,533.487,585.112,533.487 C590.03,533.487,593.468,531.408,593.468,525.531 C593.468,520.694,591.949,518.455,586.472,515.976 C581.834,513.897,580.235,511.858,580.674,509.339 C580.674,509.339,581.994,507.66,584.872,507.66 Z M620.65,505.021 L601.259,505.021 L601.259,511.498 L602.658,511.498 L604.018,507.22 L608.416,507.22 L608.416,530.969 L605.737,532.008 L605.737,533.008 L616.212,533.008 L616.212,532.008 L613.533,530.969 L613.533,507.22 L617.891,507.22 L619.25,511.498 L620.65,511.498 Z M644.633,511.498 L646.032,507.22 L646.032,505.021 L627.801,505.021 L627.801,506.02 L630.479,507.06 L630.479,530.969 L627.801,532.008 L627.801,533.008 L646.032,533.008 L646.032,526.531 L644.633,526.531 L643.233,530.809 L635.597,530.809 L635.597,519.494 L640.635,519.494 L641.754,522.213 L642.914,522.213 L642.914,514.616 L641.754,514.616 L640.635,517.295 L635.597,517.295 L635.597,507.22 L643.233,507.22 L643.233,511.498 Z M674.693,530.969 C674.213,530.769,673.813,530.089,673.453,529.169 L670.895,523.012 C669.975,520.853,669.135,519.294,668.096,518.614 C670.575,517.255,672.254,514.816,672.254,511.178 C672.254,507.46,669.455,505.021,664.418,505.021 L654.103,505.021 L654.103,506.02 L656.781,507.06 L656.781,530.969 L654.103,532.008 L654.103,533.008 L664.578,533.008 L664.578,532.008 L661.899,530.969 L661.899,519.854 L662.459,519.854 C663.778,519.854,665.057,521.413,665.897,523.492 L668.376,529.609 C668.935,531.089,669.535,532.368,670.815,533.008 L677.252,533.008 L677.252,531.928 Z M661.899,517.415 L661.899,506.74 C662.299,506.62,662.738,506.58,663.218,506.58 C665.297,506.58,667.616,508.259,667.616,512.218 C667.616,514.896,667.336,516.735,667.016,517.175 C666.377,517.495,665.297,517.695,663.738,517.695 C663.058,517.695,662.419,517.575,661.899,517.415 Z" id="def-8916abd8-62c2-4586-b29b-b6e02f6f3c7e"></path><path d="M333.873,312.115 L327.153,311.753 L327.35,308.826 L334.002,309.204 L333.873,312.115 Z M347.124,311.007 L359.869,311.579 L359.715,314.51 L348.096,313.972 L351.275,323.912 L348.468,324.832 L340.219,299.182 L343.045,298.285 L347.124,311.007 Z M343.573,329.527 L340.914,329.31 L335.801,316.274 L331.451,318.605 L330.091,316.003 L335.882,312.916 L337.939,313.677 L342.548,325.428 L344.334,322.312 L346.902,323.783 L343.573,329.527 Z M454.942,269.731 L457.582,270.203 L457.009,273.091 L450.711,271.906 L450.95,270.601 L442.328,272.489 L439.411,277.27 L436.915,275.772 L438.367,273.351 L434.345,274.228 L433.7,271.336 L437.449,270.524 L434.248,258.75 L435.297,256.936 L440.484,255.563 L440.558,254.649 L432.523,256.304 L431.909,253.405 L440.893,251.56 L441.105,249.589 L444.027,249.898 L443.913,250.918 L453.747,248.874 L454.361,251.773 L443.579,254.006 L443.499,254.762 L450.669,252.829 L452.519,254.029 L454.457,266.835 L458.138,266.006 L458.714,268.881 L454.942,269.731 Z M440.195,269.529 L440.318,269.917 L451.619,267.434 L449.893,256.085 L437.475,259.405 L437.553,259.739 L448.699,257.004 L449.397,259.851 L438.319,262.602 L438.463,263.081 L449.175,260.544 L449.849,263.429 L439.229,265.944 L439.43,266.666 L448.957,264.406 L449.655,267.253 L440.195,269.529 Z M545.175,257.287 L551.887,249.119 L554.165,250.982 L552.04,253.55 L559.055,254.788 L560.352,250.995 L563.144,251.923 L562.009,255.306 L570.622,256.832 L570.096,259.689 L561.044,258.121 L559.239,263.492 L567.518,265.74 L566.704,268.591 L558.273,266.307 L556.468,271.678 L567.454,273.742 L566.912,276.659 L542.327,271.933 L542.914,269.091 L553.528,271.099 L555.415,265.523 L548.28,263.583 L549.033,260.717 L556.38,262.708 L558.089,257.603 L549.87,256.171 L547.423,259.143 L545.175,257.287 Z M661.444,303.431 L673.754,310.896 L672.239,313.413 L667.46,310.517 L664.351,313.809 L670.293,318.178 L668.568,320.558 L662.315,315.927 L659.773,318.596 L663.749,322.202 L663.714,324.417 L658.898,328.472 L657.137,328.576 L648.351,322.498 L647.914,320.454 L652.314,314.088 L654.528,313.836 L657.595,316.633 L659.932,314.157 L654.292,309.962 L656.021,307.626 L661.967,312.04 L664.872,308.941 L659.949,305.925 L661.444,303.431 Z M654.635,297.962 L657.574,297.914 L657.724,304.983 L654.809,305.05 L654.635,297.962 Z M640.65,314.315 L649.366,309.8 L649.15,303.534 L652.081,303.398 L652.375,310.587 L651.583,311.959 L641.973,316.903 L640.65,314.315 Z M651.185,320.932 L657.877,325.527 L660.543,323.289 L653.766,317.153 L651.185,320.932 Z M333.854,678.224 L337.196,678.231 L336.308,676.624 L337.149,674.517 L339.758,673.701 L338.315,671.543 L340.746,669.922 L342.667,672.77 L346.484,671.587 L347.363,674.411 L344.386,675.325 L346.861,678.968 L345.636,681.239 L342.226,681.216 L343.737,683.921 L341.176,685.309 L338.86,681.189 L333.858,681.167 L333.854,678.224 Z M344.005,685.536 L347.792,685.838 L346.646,682.46 L349.423,681.541 L350.957,686.103 L353.83,686.326 L356.094,684.565 L347.52,678.912 L349.126,676.432 L359.413,683.246 L359.501,685.606 L355.205,688.999 L354.169,689.307 L351.986,689.136 L353.399,693.311 L350.622,694.23 L348.822,688.871 L343.786,688.454 L344.005,685.536 Z M341.477,676.256 L339.773,676.775 L340.585,678.278 L342.841,678.266 L341.477,676.256 Z M327.07,687.026 L333.134,686.516 L330.27,683.77 L332.329,681.672 L337.089,686.184 L341.572,685.807 L341.816,688.708 L339.926,688.866 L346.92,695.47 L347.224,697.237 L345.686,700.265 L343.908,700.968 L338.765,699.276 L339.702,696.475 L343.662,697.78 L344.096,696.88 L335.971,689.199 L327.314,689.926 L327.07,687.026 Z M429.699,745.692 L440.213,730.652 L433.503,728.808 L434.262,726.007 L441.996,728.126 L445.102,723.67 L447.498,725.327 L444.979,728.928 L456.006,731.891 L456.991,733.823 L451.456,750.169 L448.966,750.669 L443.706,745.002 L445.875,743.016 L449.441,746.904 L453.7,734.325 L443.226,731.461 L432.118,747.387 L429.699,745.692 Z M557.517,728.453 L559.63,743.598 L570.393,739.943 L571.353,742.726 L547.969,750.709 L547.001,747.895 L556.755,744.58 L554.578,728.905 L545.899,730.293 L545.424,727.393 L563.585,724.487 L564.03,727.395 L557.517,728.453 Z M660.654,683.537 L663.812,687.771 L670.874,680.481 L672.969,682.506 L665.592,690.147 L665.507,690.096 L668.126,693.6 L665.75,695.379 L654.71,680.41 L654.711,685.121 L651.765,685.174 L651.763,673.251 L654.682,673.263 L654.668,674.832 L661.599,669.456 L663.406,671.768 L656.142,677.427 L658.919,681.165 L665.648,675.552 L667.523,677.847 L660.654,683.537 Z M644.689,690.14 L645.469,679.231 L648.418,679.422 L648.162,682.918 L662.526,698.087 L660.373,700.127 L647.847,686.875 L647.59,690.372 L644.689,690.14 Z" fill="#000" id="def-323cab9b-0fff-46a2-92d1-b17073f041c7"></path><mask id="mask-22533d2c-d351-496b-8618-89d9b5348777" x="94.946" y="94.507" width="810.108" height="810.987" maskUnits="userSpaceOnUse" stroke-width="0"><rect x="131.769" y="131.33" width="736.462" height="737.341" fill="#fff"></rect><use xlink:href="#def-e2db243f-3c0f-40b1-9724-c27cd708f79d"></use><use xlink:href="#def-5513b48c-8ec7-4e8d-9f4d-720a0818256c"></use><use xlink:href="#def-8916abd8-62c2-4586-b29b-b6e02f6f3c7e" fill="#000"></use><use xlink:href="#def-323cab9b-0fff-46a2-92d1-b17073f041c7"></use></mask><g mask="url(#mask-22533d2c-d351-496b-8618-89d9b5348777)" id="def-b51ec324-03c9-4b0b-9c89-af46452a8de0"><use xlink:href="#def-8a6f80f3-080f-4d24-87d0-c2449f0afda6" stroke-width="24.767"></use></g><radialGradient id="gradient-677063c1-a6a2-41fc-929a-4e54123cdc82" gradientUnits="objectBoundingBox" gradientTransform="translate(0.5, 0.5) scale(1.001, 1) translate(-0.5, -0.5)" cx="0.125" cy="0.125" r="1.03"><stop offset="0" stop-color="#ffe9b4" stop-opacity="1"></stop><stop offset="0.167" stop-color="#ffdba8" stop-opacity="1"></stop><stop offset="0.333" stop-color="#ffc795" stop-opacity="1"></stop><stop offset="0.5" stop-color="#f4ad7e" stop-opacity="1"></stop><stop offset="0.667" stop-color="#e69369" stop-opacity="1"></stop><stop offset="0.833" stop-color="#dc7f5d" stop-opacity="1"></stop><stop offset="1" stop-color="#d67058" stop-opacity="1"></stop></radialGradient><mask id="mask-b2011881-85bf-41e0-af89-2ef26ffb07ab" x="94.946" y="94.507" width="810.108" height="810.987" maskUnits="userSpaceOnUse" stroke-width="0"><rect x="131.769" y="131.33" width="736.462" height="737.341" fill="#000"></rect><use xlink:href="#def-b51ec324-03c9-4b0b-9c89-af46452a8de0" fill="#fff" stroke="#fff"></use></mask></defs><rect id="background-f048271b-ef9e-4b81-8d75-ac527423411f" x="-272.947" y="0" width="1545.894" height="1000" fill="#060606"></rect><g mask="url(#mask-b2011881-85bf-41e0-af89-2ef26ffb07ab)"><rect x="131.769" y="131.33" width="736.462" height="737.341" fill="url(#gradient-677063c1-a6a2-41fc-929a-4e54123cdc82)"></rect></g></svg>
